#!OML:ASF F:\VICON\USERDATA\INSTALL\rory3\rory3.ASF
:FULLY-SPECIFIED
:DEGREES
26
root 0.46849659052050663 17.451301519492283 -14.440789661596908 6.65729532583223 0.5225213225791036 -2.3791906411335173
lfemur -16.520603588231072 7.727445895068094 -16.90830781897599
ltibia 23.25240319734785
lfoot -11.661398120772587 4.710732476797874
ltoes -13.256096105141136
rfemur -15.412104248731241 -2.6664939622852164 19.668206824568017
rtibia 23.216004274807403
rfoot -13.78429967757035 -2.70860070254753
rtoes 4.445573993815109
lowerback -0.48779494016993585 -0.7450790685952374 0.7223795779038837
upperback 4.86355073239685 -1.1086104761650257 1.9420235638395484
thorax 5.3257130131963155 -0.5675588332819541 1.550144107744944
lowerneck -11.880502260409797 0.4229546550887421 -2.334775546324015
upperneck 33.24498942040482 0.9957860760079251 0.6612304920309556
head 13.076888903429676 0.22705282186927997 0.8107214283096092
lclavicle 1.1182325637983425e-15 -1.3239623254220438e-15
lhumerus -16.466308264136778 -0.7904877925529068 87.92949672318078
lradius 18.52810551618913
lwrist -0.07156710388394583
lhand -23.23040321819788 -3.2441874372751816
lfingers 7.125019999999998
lthumb 3.2206067808912784 26.711192518295558
rclavicle 1.1182325637983425e-15 -1.3239623254220438e-15
rhumerus -18.7083096438097 -15.918096056469123 -81.99759309280941
rradius 25.720003151517382
rwrist 32.040207328778244
rhand -18.227794038548073 -26.641599494863343
rfingers 7.125019999999998
rthumb 8.050465961721159 -56.46829914697156
27
root 0.4706644518695563 17.42550170016693 -14.464889641962102 6.723975218702522 0.6475282650190614 -2.51722842766829
lfemur -17.286903067537192 7.774735645141063 -16.792208504861218
ltibia 24.353202557247027
lfoot -12.080097700717864 4.742212418385122
ltoes -13.433495870552829
rfemur -16.037003818139166 -2.8083033947755656 19.83930570171175
rtibia 24.103703778857767
rfoot -14.112799362257178 -2.780680570951465
rtoes 3.8893846676193395
lowerback -0.10872949300778234 -0.7410331201859801 0.7783060678408893
upperback 4.80697095993996 -1.0978505824019738 1.9936125757655665
thorax 5.049553614134917 -0.5609389553714709 1.5772437295469337
lowerneck -11.819102443420272 0.35639283312626846 -2.409353685293223
upperneck 32.30269047039519 0.8843801729229129 0.741177753538231
head 12.666490286661997 0.19002592505341667 0.8304356686152571
lclavicle 1.1182325704584516e-15 -1.323962330608531e-15
lhumerus -16.78240793957375 -0.8056047780166002 87.83489692529453
lradius 18.681705281191316
lwrist 0.20513655669427422
lhand -23.220203275939944 -3.230077492928931
lfingers 7.125019999999998
lthumb 3.230426723323978 26.72519246272342
rclavicle 1.1182325704584516e-15 -1.323962330608531e-15
rhumerus -18.94900922818058 -15.645496387144751 -81.75739376779288
rradius 25.916702877173563
rwrist 31.7860079083977
rhand -18.243593940712937 -26.633499566272775
rfingers 7.125019999999998
rthumb 8.035236059471625 -56.460799210186046
28
root 0.4728563116837246 17.375202052412458 -14.505189609128704 6.9731048184441615 0.5359872086575651 -2.4968587543003293
lfemur -18.66520213099488 8.018284357982525 -16.90910781424982
ltibia 26.153001510686813
lfoot -12.697497081320224 4.902872120272244
ltoes -13.822995355490004
rfemur -17.537402784277123 -2.678363914782646 19.832505746337247
rtibia 26.100802663096722
rfoot -14.75139874929221 -2.9930501832287097
rtoes 3.190605514166263
lowerback 0.43259571751096376 -0.7044915861348205 0.5992357010055682
upperback 4.737071241051002 -1.031241240063961 1.976912895611186
thorax 4.669014442209842 -0.5346124409078303 1.6692224459066047
lowerneck -11.870102291408314 0.3693596036352216 -2.318845943833006
upperneck 31.107991801631023 0.8792922230194388 0.7250689023396906
head 12.186391904814641 0.20875236711538822 0.7979229215040301
lclavicle 1.1182325631660486e-15 -1.3239623350541274e-15
lhumerus -17.348507358317434 -0.6062999696656144 87.56339750535676
lradius 18.95720485969457
lwrist 1.0754848036129987
lhand -23.47570182955785 -3.347587029436907
lfingers 7.125019999999998
lthumb 2.9837381694825154 26.611292914842462
rclavicle 1.1182325631660486e-15 -1.3239623350541274e-15
rhumerus -18.98930915859248 -15.700596320306058 -81.43759466645946
rradius 25.69070319238304
rwrist 31.630608262736253
rhand -18.441492715296828 -26.17970356696421
rfingers 7.125019999999998
rthumb 7.844237285363885 -56.01420297439765
29
root 0.4734352746547116 17.305602539813822 -14.575789551609263 7.442424064423175 0.237061737570182 -2.3630608997773477
lfemur -20.675600764946378 8.503791792068567 -17.227205935007003
ltibia 28.48730015332185
lfoot -13.441896334511675 5.1111317338351245
ltoes -14.391394603855314
rfemur -19.77140124492244 -2.492004660577006 19.708706558783803
rtibia 28.738401189494365
rfoot -15.557897975167181 -3.14987989690503
rtoes 2.3193665696422663
lowerback 1.346119385206841 -0.6291325470538837 0.31475029558066586
upperback 4.7230312975145 -0.9067494692234558 1.8890545783438868
thorax 4.135315603568941 -0.48106642844972625 1.751281300706284
lowerneck -11.884302249083415 0.4568740547697525 -2.2023288514128927
upperneck 29.366193742491944 0.9704583253877895 0.7106760352901829
head 11.4962942307616 0.277842308640764 0.7704239811842067
lclavicle 1.1182325536817414e-15 -1.3239623169013898e-15
lhumerus -18.098706588032147 -0.1319574257874807 86.97789875628288
lradius 18.964704848220073
lwrist 1.8093141686566643
lhand -24.005798828668812 -3.4915364616581934
lfingers 7.125019999999998
lthumb 2.471751170896068 26.473893460243318
rclavicle 1.1182325536817414e-15 -1.3239623169013898e-15
rhumerus -19.104008960534074 -16.962894789081375 -80.77989651465522
rradius 24.945204232155895
rwrist 32.47800633051942
rhand -18.598391743756718 -26.07100452526117
rfingers 7.125019999999998
rthumb 7.692818257220459 -55.911103843386044
30
root 0.4760671063293882 17.21980314066206 -14.678089468263021 8.388282544781365 0.046418950410158866 -2.2624925124128
lfemur -23.669198730822426 9.04676892242642 -17.643303476808523
ltibia 31.33329849841002
lfoot -14.321495452065676 5.305421373320054
ltoes -14.813994045022078
rfemur -22.77679917402873 -2.336915281231914 19.631807063445677
rtibia 31.641299567671386
rfoot -16.51699705456789 -3.4042894324300748
rtoes 1.7401972712859504
lowerback 2.437337793748589 -0.5591474394488102 0.16964161900658342
upperback 4.85149078089756 -0.7979175437667236 1.8425054698896095
thorax 3.6507166580838737 -0.43052636055339155 1.7968106653057165
lowerneck -12.088801639545272 0.5412115621310928 -2.0452927701079266
upperneck 27.013696363846464 1.0934891140128749 0.5385656251168183
head 10.642797107439948 0.35167510885679787 0.6803454523881945
lclavicle 1.118232566201034e-15 -1.3239623244958884e-15
lhumerus -19.027905633954433 0.5660729029952751 86.25820029392852
lradius 19.161304547435112
lwrist 2.511033561483928
lhand -23.878199551010713 -2.7919092211929057
lfingers 7.125019999999998
lthumb 2.594980448490958 27.17209068878133
rclavicle 1.118232566201034e-15 -1.3239623244958884e-15
rhumerus -19.629408053298743 -17.894193659374075 -79.88539902828016
rradius 24.415104971503425
rwrist 32.74470572239784
rhand -18.77669063970572 -26.058504635460906
rfingers 7.125019999999998
rthumb 7.520679362063879 -55.90480389648621
31
root 0.5023954685023386 16.95942470772891 -8.52970292195014 11.620420168110282 -0.8000380324589789 -2.2252383161263762
lfemur -26.349320156323884 9.592729060525441 -18.69199875174377
ltibia 34.53035330394214
lfoot -15.08285714472793 5.792388277405844
ltoes -10.393931485491276
rfemur -25.77153353638291 -3.515364132367022 21.381413449160725
rtibia 35.82855909826869
rfoot -18.013791939812037 -3.9979193169920926
rtoes 4.000172676051907
lowerback 2.6129051259166056 -0.23221181244423275 0.6530943271208651
upperback 5.102757796753601 -0.3983134191098646 2.012882052081961
thorax 2.6552335203970063 -0.20369064221571773 1.8065938297247794
lowerneck -13.629237751243435 0.2811060660442054 -1.9502565385116104
upperneck 24.51791006151824 0.7568572946993544 0.7739435601542521
head 10.244478708307152 0.1634684024906964 0.7371941992981943
lclavicle 1.2926131420062178e-15 -1.1317980456973567e-15
lhumerus -20.895706508996945 -1.074686056814154 86.58727592680904
lradius 20.804932533741656
lwrist 2.4764525223978717
lhand -23.972175645280664 -4.159939498199663
lfingers 7.125019999999998
lthumb 2.5042354311484885 25.80377863291257
rclavicle 1.2926131420062178e-15 -1.1317980456973567e-15
rhumerus -21.301851318528065 -14.38241561902337 -79.76310767862012
rradius 26.34938268341586
rwrist 34.548040045017345
rhand -17.69467434670526 -26.3652029880175
rfingers 7.125019999999998
rthumb 8.565020283169734 -56.17002990780256
32
root 0.5288814052282214 16.861503245354584 -9.3203144149526 12.063124300712042 -0.8233645925833971 -2.2961067635578134
lfemur -28.523420134535897 9.903547456417929 -18.938767443778588
ltibia 36.79015969090309
lfoot -15.19694798156988 6.044834209664968
ltoes -10.545926265969161
rfemur -27.90910464556341 -3.6739878963944883 21.621681176521776
rtibia 38.132352617717956
rfoot -18.089315109665655 -3.9414151888423095
rtoes 3.9916843294569935
lowerback 3.773801364411572 -0.010609748834250914 0.7276488905298617
upperback 5.713039436150745 -0.0977300044447312 2.013116425653816
thorax 2.3852642540902655 -0.0621567147233372 1.7633395441035717
lowerneck -13.729331485953441 0.18989903531672034 -1.9414555692061548
upperneck 22.88424125027068 0.5717136781486594 0.7782415594968229
head 9.63278553411278 0.11484317879302086 0.7243152602550238
lclavicle 1.3432841706346258e-15 -1.0762634731560384e-15
lhumerus -22.074235985513543 -1.9403662064758656 86.59996186684046
lradius 21.436755088433195
lwrist 3.973395269354409
lhand -24.124377886555664 -4.231379082260808
lfingers 7.125019999999998
lthumb 2.357241205413587 25.73108394792577
rclavicle 1.3432841706346258e-15 -1.0762634731560384e-15
rhumerus -21.904655363095728 -14.071844075488595 -79.42616892746454
rradius 26.98539592849292
rwrist 34.06367874745363
rhand -17.361820017677438 -26.34287422259229
rfingers 7.125019999999998
rthumb 8.886114664317562 -56.13481371466981
